<svg width="109" height="109" viewBox="0 0 109 109" fill="none" xmlns="http://www.w3.org/2000/svg">
<circle cx="54.5" cy="54.5" r="54.5" fill="#00B392"/>
<path d="M23.0249 67.448H34.7369V71H18.6569V37.544H23.0249V67.448ZM49.9837 71.336C47.7757 71.336 45.7917 70.952 44.0317 70.184C42.3037 69.384 40.9437 68.296 39.9517 66.92C38.9597 65.512 38.4477 63.896 38.4157 62.072H43.0717C43.2317 63.64 43.8717 64.968 44.9917 66.056C46.1437 67.112 47.8077 67.64 49.9837 67.64C52.0637 67.64 53.6957 67.128 54.8797 66.104C56.0957 65.048 56.7037 63.704 56.7037 62.072C56.7037 60.792 56.3517 59.752 55.6477 58.952C54.9437 58.152 54.0637 57.544 53.0077 57.128C51.9517 56.712 50.5277 56.264 48.7357 55.784C46.5277 55.208 44.7517 54.632 43.4077 54.056C42.0957 53.48 40.9597 52.584 39.9997 51.368C39.0717 50.12 38.6077 48.456 38.6077 46.376C38.6077 44.552 39.0717 42.936 39.9997 41.528C40.9277 40.12 42.2237 39.032 43.8877 38.264C45.5837 37.496 47.5197 37.112 49.6957 37.112C52.8317 37.112 55.3917 37.896 57.3757 39.464C59.3917 41.032 60.5277 43.112 60.7837 45.704H55.9837C55.8237 44.424 55.1517 43.304 53.9677 42.344C52.7837 41.352 51.2157 40.856 49.2637 40.856C47.4397 40.856 45.9517 41.336 44.7997 42.296C43.6477 43.224 43.0717 44.536 43.0717 46.232C43.0717 47.448 43.4077 48.44 44.0797 49.208C44.7837 49.976 45.6317 50.568 46.6237 50.984C47.6477 51.368 49.0717 51.816 50.8957 52.328C53.1037 52.936 54.8797 53.544 56.2237 54.152C57.5677 54.728 58.7197 55.64 59.6797 56.888C60.6397 58.104 61.1197 59.768 61.1197 61.88C61.1197 63.512 60.6877 65.048 59.8237 66.488C58.9597 67.928 57.6797 69.096 55.9837 69.992C54.2877 70.888 52.2877 71.336 49.9837 71.336ZM65.7716 63.272V59.96L82.6196 36.632H87.8516V59.48H92.6516V63.272H87.8516V71H83.5316V63.272H65.7716ZM83.7236 41.192L70.8116 59.48H83.7236V41.192Z" fill="white"/>
</svg>
