<svg width="109" height="109" viewBox="0 0 109 109" fill="none" xmlns="http://www.w3.org/2000/svg">
<circle cx="54.5" cy="54.5" r="54.5" fill="#323232"/>
<path d="M36.5 71H32.132L14.564 44.36V71H10.196V37.496H14.564L32.132 64.088V37.496H36.5V71ZM57.626 54.296L67.898 71H62.954L54.938 57.944L47.306 71H42.458L52.682 54.296L42.41 37.544H47.306L55.37 50.648L63.05 37.544H67.946L57.626 54.296ZM78.1265 49.544C78.9905 48.04 80.2705 46.792 81.9665 45.8C83.6945 44.776 85.6945 44.264 87.9665 44.264C90.3025 44.264 92.4145 44.824 94.3025 45.944C96.2225 47.064 97.7265 48.648 98.8145 50.696C99.9025 52.712 100.447 55.064 100.447 57.752C100.447 60.408 99.9025 62.776 98.8145 64.856C97.7265 66.936 96.2225 68.552 94.3025 69.704C92.4145 70.856 90.3025 71.432 87.9665 71.432C85.7265 71.432 83.7425 70.936 82.0145 69.944C80.3185 68.92 79.0225 67.656 78.1265 66.152V83.48H73.7585V44.696H78.1265V49.544ZM95.9825 57.752C95.9825 55.768 95.5825 54.04 94.7825 52.568C93.9825 51.096 92.8945 49.976 91.5185 49.208C90.1745 48.44 88.6865 48.056 87.0545 48.056C85.4545 48.056 83.9665 48.456 82.5905 49.256C81.2465 50.024 80.1585 51.16 79.3265 52.664C78.5265 54.136 78.1265 55.848 78.1265 57.8C78.1265 59.784 78.5265 61.528 79.3265 63.032C80.1585 64.504 81.2465 65.64 82.5905 66.44C83.9665 67.208 85.4545 67.592 87.0545 67.592C88.6865 67.592 90.1745 67.208 91.5185 66.44C92.8945 65.64 93.9825 64.504 94.7825 63.032C95.5825 61.528 95.9825 59.768 95.9825 57.752Z" fill="#B8B8B8"/>
</svg>
